<mxfile host="app.diagrams.net" modified="2022-02-22T17:18:50.457Z" agent="5.0 (Windows NT 10.0; Win64; x64) AppleWebKit/537.36 (KHTML, like Gecko) Chrome/98.0.4758.102 Safari/537.36" etag="FAIMnRw8bj15ux0H5fFr" version="16.6.2" type="github" pages="2">
  <diagram id="C5RBs43oDa-KdzZeNtuy" name="Page-1">
    <mxGraphModel dx="1021" dy="567" grid="1" gridSize="10" guides="1" tooltips="1" connect="1" arrows="1" fold="1" page="1" pageScale="1" pageWidth="1654" pageHeight="1169" math="0" shadow="0">
      <root>
        <mxCell id="WIyWlLk6GJQsqaUBKTNV-0" />
        <mxCell id="WIyWlLk6GJQsqaUBKTNV-1" parent="WIyWlLk6GJQsqaUBKTNV-0" />
        <mxCell id="osWFFejmpus2yblLy1mS-0" value="Client-side(mobile, web)" style="whiteSpace=wrap;html=1;aspect=fixed;" vertex="1" parent="WIyWlLk6GJQsqaUBKTNV-1">
          <mxGeometry x="10" y="382" width="90" height="90" as="geometry" />
        </mxCell>
        <mxCell id="osWFFejmpus2yblLy1mS-1" value="" style="endArrow=classic;html=1;rounded=0;exitX=1;exitY=0.5;exitDx=0;exitDy=0;" edge="1" parent="WIyWlLk6GJQsqaUBKTNV-1" source="osWFFejmpus2yblLy1mS-0">
          <mxGeometry width="50" height="50" relative="1" as="geometry">
            <mxPoint x="137" y="434" as="sourcePoint" />
            <mxPoint x="150" y="427" as="targetPoint" />
          </mxGeometry>
        </mxCell>
        <mxCell id="osWFFejmpus2yblLy1mS-10" style="edgeStyle=orthogonalEdgeStyle;rounded=0;orthogonalLoop=1;jettySize=auto;html=1;fontSize=11;entryX=0.563;entryY=1.017;entryDx=0;entryDy=0;entryPerimeter=0;startArrow=none;" edge="1" parent="WIyWlLk6GJQsqaUBKTNV-1">
          <mxGeometry relative="1" as="geometry">
            <mxPoint x="207.03999999999996" y="127.01999999999998" as="targetPoint" />
            <mxPoint x="218" y="144.5" as="sourcePoint" />
          </mxGeometry>
        </mxCell>
        <mxCell id="mOkN9R8deU_kkM4qeCwx-23" style="edgeStyle=orthogonalEdgeStyle;rounded=0;orthogonalLoop=1;jettySize=auto;html=1;fontSize=12;" edge="1" parent="WIyWlLk6GJQsqaUBKTNV-1">
          <mxGeometry relative="1" as="geometry">
            <mxPoint x="290" y="429.5" as="targetPoint" />
            <mxPoint x="245" y="429.5" as="sourcePoint" />
          </mxGeometry>
        </mxCell>
        <mxCell id="osWFFejmpus2yblLy1mS-2" value="" style="whiteSpace=wrap;html=1;aspect=fixed;" vertex="1" parent="WIyWlLk6GJQsqaUBKTNV-1">
          <mxGeometry x="150" y="390" width="95" height="95" as="geometry" />
        </mxCell>
        <mxCell id="osWFFejmpus2yblLy1mS-5" value="User Registration" style="text;html=1;align=center;verticalAlign=middle;resizable=0;points=[];autosize=1;strokeColor=none;fillColor=none;fontSize=12;fontStyle=1;rotation=-30;" vertex="1" parent="WIyWlLk6GJQsqaUBKTNV-1">
          <mxGeometry x="137.5" y="422" width="120" height="20" as="geometry" />
        </mxCell>
        <mxCell id="osWFFejmpus2yblLy1mS-11" value="" style="shape=cylinder3;whiteSpace=wrap;html=1;boundedLbl=1;backgroundOutline=1;size=15;fontSize=11;" vertex="1" parent="WIyWlLk6GJQsqaUBKTNV-1">
          <mxGeometry x="161.5" y="30" width="85.5" height="100" as="geometry" />
        </mxCell>
        <mxCell id="osWFFejmpus2yblLy1mS-12" value="&lt;b style=&quot;font-size: 15px&quot;&gt;User&lt;br&gt;Database&lt;/b&gt;" style="text;html=1;align=center;verticalAlign=middle;resizable=0;points=[];autosize=1;strokeColor=none;fillColor=none;fontSize=15;" vertex="1" parent="WIyWlLk6GJQsqaUBKTNV-1">
          <mxGeometry x="167" y="70" width="80" height="40" as="geometry" />
        </mxCell>
        <mxCell id="osWFFejmpus2yblLy1mS-16" value="User Input validation done by mongoose, Joi and others" style="shape=process;whiteSpace=wrap;html=1;backgroundOutline=1;fontSize=14;" vertex="1" parent="WIyWlLk6GJQsqaUBKTNV-1">
          <mxGeometry x="137" y="144.5" width="170" height="65.5" as="geometry" />
        </mxCell>
        <mxCell id="mOkN9R8deU_kkM4qeCwx-3" value="User Model" style="swimlane;fontStyle=0;childLayout=stackLayout;horizontal=1;startSize=30;horizontalStack=0;resizeParent=1;resizeParentMax=0;resizeLast=0;collapsible=1;marginBottom=0;fontSize=14;" vertex="1" parent="WIyWlLk6GJQsqaUBKTNV-1">
          <mxGeometry x="137" y="240" width="140" height="120" as="geometry" />
        </mxCell>
        <mxCell id="mOkN9R8deU_kkM4qeCwx-4" value="Email" style="text;strokeColor=none;fillColor=none;align=left;verticalAlign=middle;spacingLeft=4;spacingRight=4;overflow=hidden;points=[[0,0.5],[1,0.5]];portConstraint=eastwest;rotatable=0;fontSize=14;" vertex="1" parent="mOkN9R8deU_kkM4qeCwx-3">
          <mxGeometry y="30" width="140" height="30" as="geometry" />
        </mxCell>
        <mxCell id="mOkN9R8deU_kkM4qeCwx-5" value="Name" style="text;strokeColor=none;fillColor=none;align=left;verticalAlign=middle;spacingLeft=4;spacingRight=4;overflow=hidden;points=[[0,0.5],[1,0.5]];portConstraint=eastwest;rotatable=0;fontSize=14;" vertex="1" parent="mOkN9R8deU_kkM4qeCwx-3">
          <mxGeometry y="60" width="140" height="30" as="geometry" />
        </mxCell>
        <mxCell id="mOkN9R8deU_kkM4qeCwx-6" value="Password" style="text;strokeColor=none;fillColor=none;align=left;verticalAlign=middle;spacingLeft=4;spacingRight=4;overflow=hidden;points=[[0,0.5],[1,0.5]];portConstraint=eastwest;rotatable=0;fontSize=14;" vertex="1" parent="mOkN9R8deU_kkM4qeCwx-3">
          <mxGeometry y="90" width="140" height="30" as="geometry" />
        </mxCell>
        <mxCell id="mOkN9R8deU_kkM4qeCwx-8" value="" style="endArrow=classic;html=1;rounded=0;fontSize=14;entryX=0.45;entryY=1.067;entryDx=0;entryDy=0;entryPerimeter=0;" edge="1" parent="WIyWlLk6GJQsqaUBKTNV-1" source="osWFFejmpus2yblLy1mS-2" target="mOkN9R8deU_kkM4qeCwx-6">
          <mxGeometry width="50" height="50" relative="1" as="geometry">
            <mxPoint x="182" y="370" as="sourcePoint" />
            <mxPoint x="180" y="370" as="targetPoint" />
          </mxGeometry>
        </mxCell>
        <mxCell id="mOkN9R8deU_kkM4qeCwx-9" value="" style="endArrow=classic;html=1;rounded=0;fontSize=14;" edge="1" parent="WIyWlLk6GJQsqaUBKTNV-1">
          <mxGeometry width="50" height="50" relative="1" as="geometry">
            <mxPoint x="206.5" y="240" as="sourcePoint" />
            <mxPoint x="206.5" y="210" as="targetPoint" />
          </mxGeometry>
        </mxCell>
        <mxCell id="mOkN9R8deU_kkM4qeCwx-11" style="edgeStyle=orthogonalEdgeStyle;rounded=0;orthogonalLoop=1;jettySize=auto;html=1;fontSize=14;" edge="1" parent="WIyWlLk6GJQsqaUBKTNV-1" source="mOkN9R8deU_kkM4qeCwx-10">
          <mxGeometry relative="1" as="geometry">
            <mxPoint x="417" y="432" as="targetPoint" />
          </mxGeometry>
        </mxCell>
        <mxCell id="mOkN9R8deU_kkM4qeCwx-10" value="Registration&lt;br&gt;Successful" style="rounded=0;whiteSpace=wrap;html=1;fontSize=14;" vertex="1" parent="WIyWlLk6GJQsqaUBKTNV-1">
          <mxGeometry x="290" y="402" width="97" height="60" as="geometry" />
        </mxCell>
        <mxCell id="mOkN9R8deU_kkM4qeCwx-13" style="edgeStyle=orthogonalEdgeStyle;rounded=0;orthogonalLoop=1;jettySize=auto;html=1;fontSize=14;" edge="1" parent="WIyWlLk6GJQsqaUBKTNV-1" source="mOkN9R8deU_kkM4qeCwx-12">
          <mxGeometry relative="1" as="geometry">
            <mxPoint x="457" y="350" as="targetPoint" />
          </mxGeometry>
        </mxCell>
        <mxCell id="mOkN9R8deU_kkM4qeCwx-20" style="edgeStyle=orthogonalEdgeStyle;rounded=0;orthogonalLoop=1;jettySize=auto;html=1;fontSize=14;" edge="1" parent="WIyWlLk6GJQsqaUBKTNV-1" source="mOkN9R8deU_kkM4qeCwx-12">
          <mxGeometry relative="1" as="geometry">
            <mxPoint x="557" y="432" as="targetPoint" />
          </mxGeometry>
        </mxCell>
        <mxCell id="mOkN9R8deU_kkM4qeCwx-12" value="&lt;b&gt;Login&lt;/b&gt;" style="whiteSpace=wrap;html=1;aspect=fixed;fontSize=14;" vertex="1" parent="WIyWlLk6GJQsqaUBKTNV-1">
          <mxGeometry x="417" y="392" width="80" height="80" as="geometry" />
        </mxCell>
        <mxCell id="mOkN9R8deU_kkM4qeCwx-17" style="edgeStyle=orthogonalEdgeStyle;rounded=0;orthogonalLoop=1;jettySize=auto;html=1;fontSize=14;" edge="1" parent="WIyWlLk6GJQsqaUBKTNV-1" source="mOkN9R8deU_kkM4qeCwx-14">
          <mxGeometry relative="1" as="geometry">
            <mxPoint x="537" y="320" as="targetPoint" />
          </mxGeometry>
        </mxCell>
        <mxCell id="mOkN9R8deU_kkM4qeCwx-14" value="User Input validation" style="shape=process;whiteSpace=wrap;html=1;backgroundOutline=1;fontSize=14;" vertex="1" parent="WIyWlLk6GJQsqaUBKTNV-1">
          <mxGeometry x="397" y="290" width="120" height="60" as="geometry" />
        </mxCell>
        <mxCell id="mOkN9R8deU_kkM4qeCwx-16" value="" style="endArrow=classic;startArrow=classic;html=1;rounded=0;fontSize=14;exitX=1.063;exitY=0.375;exitDx=0;exitDy=0;exitPerimeter=0;" edge="1" parent="WIyWlLk6GJQsqaUBKTNV-1" source="osWFFejmpus2yblLy1mS-12">
          <mxGeometry width="50" height="50" relative="1" as="geometry">
            <mxPoint x="327" y="170" as="sourcePoint" />
            <mxPoint x="457" y="280" as="targetPoint" />
            <Array as="points">
              <mxPoint x="457" y="60" />
            </Array>
          </mxGeometry>
        </mxCell>
        <mxCell id="mOkN9R8deU_kkM4qeCwx-19" style="edgeStyle=orthogonalEdgeStyle;rounded=0;orthogonalLoop=1;jettySize=auto;html=1;fontSize=14;" edge="1" parent="WIyWlLk6GJQsqaUBKTNV-1" source="mOkN9R8deU_kkM4qeCwx-18">
          <mxGeometry relative="1" as="geometry">
            <mxPoint x="597" y="400" as="targetPoint" />
          </mxGeometry>
        </mxCell>
        <mxCell id="mOkN9R8deU_kkM4qeCwx-18" value="Creates a token with JWT for authorization" style="rounded=0;whiteSpace=wrap;html=1;fontSize=14;" vertex="1" parent="WIyWlLk6GJQsqaUBKTNV-1">
          <mxGeometry x="537" y="290" width="120" height="60" as="geometry" />
        </mxCell>
        <mxCell id="mOkN9R8deU_kkM4qeCwx-26" style="edgeStyle=orthogonalEdgeStyle;rounded=0;orthogonalLoop=1;jettySize=auto;html=1;fontSize=12;" edge="1" parent="WIyWlLk6GJQsqaUBKTNV-1" source="mOkN9R8deU_kkM4qeCwx-21">
          <mxGeometry relative="1" as="geometry">
            <mxPoint x="760" y="432" as="targetPoint" />
          </mxGeometry>
        </mxCell>
        <mxCell id="mOkN9R8deU_kkM4qeCwx-21" value="Bearer token to be able to perform actions" style="rounded=0;whiteSpace=wrap;html=1;fontSize=14;" vertex="1" parent="WIyWlLk6GJQsqaUBKTNV-1">
          <mxGeometry x="557" y="402" width="120" height="60" as="geometry" />
        </mxCell>
        <mxCell id="mOkN9R8deU_kkM4qeCwx-29" style="edgeStyle=orthogonalEdgeStyle;rounded=0;orthogonalLoop=1;jettySize=auto;html=1;fontSize=12;" edge="1" parent="WIyWlLk6GJQsqaUBKTNV-1" source="mOkN9R8deU_kkM4qeCwx-28">
          <mxGeometry relative="1" as="geometry">
            <mxPoint x="960" y="444" as="targetPoint" />
          </mxGeometry>
        </mxCell>
        <mxCell id="mOkN9R8deU_kkM4qeCwx-28" value="&lt;b&gt;USER ACTIONS&lt;/b&gt;" style="whiteSpace=wrap;html=1;aspect=fixed;fontSize=12;" vertex="1" parent="WIyWlLk6GJQsqaUBKTNV-1">
          <mxGeometry x="758" y="363" width="162" height="162" as="geometry" />
        </mxCell>
        <mxCell id="mOkN9R8deU_kkM4qeCwx-30" value="" style="endArrow=none;html=1;rounded=0;fontSize=12;" edge="1" parent="WIyWlLk6GJQsqaUBKTNV-1">
          <mxGeometry width="50" height="50" relative="1" as="geometry">
            <mxPoint x="960" y="600" as="sourcePoint" />
            <mxPoint x="960" y="200" as="targetPoint" />
          </mxGeometry>
        </mxCell>
        <mxCell id="mOkN9R8deU_kkM4qeCwx-33" value="" style="endArrow=classic;html=1;rounded=0;fontSize=12;" edge="1" parent="WIyWlLk6GJQsqaUBKTNV-1">
          <mxGeometry width="50" height="50" relative="1" as="geometry">
            <mxPoint x="960" y="200" as="sourcePoint" />
            <mxPoint x="1020" y="200" as="targetPoint" />
          </mxGeometry>
        </mxCell>
        <mxCell id="mOkN9R8deU_kkM4qeCwx-34" value="USER FUND THEIR ACCOUNT" style="whiteSpace=wrap;html=1;aspect=fixed;fontSize=12;" vertex="1" parent="WIyWlLk6GJQsqaUBKTNV-1">
          <mxGeometry x="1020" y="170" width="100" height="100" as="geometry" />
        </mxCell>
        <mxCell id="mOkN9R8deU_kkM4qeCwx-35" value="User can send money to another User using their email." style="whiteSpace=wrap;html=1;aspect=fixed;fontSize=12;" vertex="1" parent="WIyWlLk6GJQsqaUBKTNV-1">
          <mxGeometry x="1040" y="362" width="98" height="98" as="geometry" />
        </mxCell>
        <mxCell id="mOkN9R8deU_kkM4qeCwx-36" value="" style="endArrow=classic;html=1;rounded=0;fontSize=12;" edge="1" parent="WIyWlLk6GJQsqaUBKTNV-1">
          <mxGeometry width="50" height="50" relative="1" as="geometry">
            <mxPoint x="960" y="402" as="sourcePoint" />
            <mxPoint x="1040" y="402" as="targetPoint" />
          </mxGeometry>
        </mxCell>
        <mxCell id="mOkN9R8deU_kkM4qeCwx-40" value="" style="endArrow=classic;html=1;rounded=0;fontSize=12;entryX=-0.014;entryY=0.604;entryDx=0;entryDy=0;entryPerimeter=0;" edge="1" parent="WIyWlLk6GJQsqaUBKTNV-1" target="mOkN9R8deU_kkM4qeCwx-41">
          <mxGeometry width="50" height="50" relative="1" as="geometry">
            <mxPoint x="960" y="600" as="sourcePoint" />
            <mxPoint x="1030" y="600" as="targetPoint" />
          </mxGeometry>
        </mxCell>
        <mxCell id="mOkN9R8deU_kkM4qeCwx-41" value="User can withdraw money" style="whiteSpace=wrap;html=1;aspect=fixed;fontSize=12;" vertex="1" parent="WIyWlLk6GJQsqaUBKTNV-1">
          <mxGeometry x="1040" y="540" width="100" height="100" as="geometry" />
        </mxCell>
        <mxCell id="mOkN9R8deU_kkM4qeCwx-44" value="" style="endArrow=none;html=1;rounded=0;fontSize=12;" edge="1" parent="WIyWlLk6GJQsqaUBKTNV-1">
          <mxGeometry width="50" height="50" relative="1" as="geometry">
            <mxPoint x="1240" y="660" as="sourcePoint" />
            <mxPoint x="1240" y="120" as="targetPoint" />
          </mxGeometry>
        </mxCell>
        <mxCell id="mOkN9R8deU_kkM4qeCwx-45" value="" style="endArrow=classic;html=1;rounded=0;fontSize=12;" edge="1" parent="WIyWlLk6GJQsqaUBKTNV-1">
          <mxGeometry width="50" height="50" relative="1" as="geometry">
            <mxPoint x="1120" y="218.89" as="sourcePoint" />
            <mxPoint x="1230" y="219" as="targetPoint" />
          </mxGeometry>
        </mxCell>
        <mxCell id="mOkN9R8deU_kkM4qeCwx-46" value="" style="endArrow=classic;html=1;rounded=0;fontSize=12;" edge="1" parent="WIyWlLk6GJQsqaUBKTNV-1">
          <mxGeometry width="50" height="50" relative="1" as="geometry">
            <mxPoint x="1138" y="409.8899999999999" as="sourcePoint" />
            <mxPoint x="1240" y="410" as="targetPoint" />
          </mxGeometry>
        </mxCell>
        <mxCell id="mOkN9R8deU_kkM4qeCwx-47" value="" style="endArrow=classic;html=1;rounded=0;fontSize=12;" edge="1" parent="WIyWlLk6GJQsqaUBKTNV-1">
          <mxGeometry width="50" height="50" relative="1" as="geometry">
            <mxPoint x="1140" y="599.9999999999999" as="sourcePoint" />
            <mxPoint x="1240" y="600" as="targetPoint" />
          </mxGeometry>
        </mxCell>
        <mxCell id="mOkN9R8deU_kkM4qeCwx-48" value="" style="shape=flexArrow;endArrow=classic;html=1;rounded=0;fontSize=12;" edge="1" parent="WIyWlLk6GJQsqaUBKTNV-1">
          <mxGeometry width="50" height="50" relative="1" as="geometry">
            <mxPoint x="1250" y="410.40999999999997" as="sourcePoint" />
            <mxPoint x="1330" y="410.40999999999997" as="targetPoint" />
          </mxGeometry>
        </mxCell>
        <mxCell id="mOkN9R8deU_kkM4qeCwx-49" value="&lt;b&gt;Use webhook only to confirm if transfer or funding is successful.&lt;/b&gt;" style="whiteSpace=wrap;html=1;aspect=fixed;fontSize=12;" vertex="1" parent="WIyWlLk6GJQsqaUBKTNV-1">
          <mxGeometry x="1350" y="350" width="130" height="130" as="geometry" />
        </mxCell>
      </root>
    </mxGraphModel>
  </diagram>
  <diagram id="9ilUpWpDuVxGtORAmrc3" name="Page-2">
    <mxGraphModel dx="1447" dy="803" grid="1" gridSize="10" guides="1" tooltips="1" connect="1" arrows="1" fold="1" page="1" pageScale="1" pageWidth="850" pageHeight="1100" math="0" shadow="0">
      <root>
        <mxCell id="PTxKEYtfGn3C42o0jo49-0" />
        <mxCell id="PTxKEYtfGn3C42o0jo49-1" parent="PTxKEYtfGn3C42o0jo49-0" />
      </root>
    </mxGraphModel>
  </diagram>
</mxfile>
